<?xml version="1.0" standalone="no"?>
<!DOCTYPE svg PUBLIC "-//W3C//DTD SVG 20010904//EN"
 "http://www.w3.org/TR/2001/REC-SVG-20010904/DTD/svg10.dtd">
<svg version="1.0" xmlns="http://www.w3.org/2000/svg"
 width="841.000000pt" height="150.000000pt" viewBox="0 0 841.000000 150.000000"
 preserveAspectRatio="xMidYMid meet">
<metadata>
Created by potrace 1.16, written by Peter Selinger 2001-2019
</metadata>
<g transform="translate(0.000000,150.000000) scale(0.100000,-0.100000)"
fill="#000000" stroke="none">
<path d="M1820 795 l0 -365 100 0 100 0 0 58 c0 53 3 61 34 91 l34 33 34 -53
c19 -30 44 -71 57 -91 l23 -38 110 0 c84 0 109 3 105 13 -2 6 -46 76 -96 155
-50 78 -91 146 -91 150 0 4 41 51 90 106 50 54 90 100 90 102 0 2 -51 4 -112
4 l-113 0 -80 -97 -80 -96 -3 197 -2 196 -100 0 -100 0 0 -365z"/>
<path d="M2850 781 l0 -351 243 0 c257 0 301 6 355 46 46 35 64 76 63 146 0
74 -22 115 -80 147 l-43 24 36 20 c104 60 98 220 -11 284 l-48 28 -257 3 -258
3 0 -350z m400 181 c14 -11 23 -29 23 -47 0 -48 -33 -65 -124 -65 l-79 0 0 65
0 65 79 0 c61 0 84 -4 101 -18z m30 -271 c15 -29 12 -62 -7 -83 -13 -15 -32
-18 -110 -18 l-93 0 0 60 0 60 100 0 c88 0 100 -2 110 -19z"/>
<path d="M3700 789 c-69 -188 -126 -346 -128 -350 -2 -5 48 -9 111 -9 l115 0
12 50 12 51 126 -3 126 -3 14 -47 13 -48 115 0 c63 0 114 4 114 8 0 4 -56 161
-124 347 l-124 340 -129 3 -128 3 -125 -342z m289 20 c17 -59 31 -112 31 -118
0 -7 -27 -11 -76 -11 -66 0 -75 2 -70 16 4 9 21 66 38 126 17 60 35 105 39
101 4 -4 21 -56 38 -114z"/>
<path d="M4400 1045 l0 -84 146 -3 146 -3 -161 -228 c-133 -188 -161 -234
-161 -262 l0 -35 340 0 341 0 -3 83 -3 82 -163 5 -163 5 161 228 c138 195 161
233 158 260 l-3 32 -317 3 -318 2 0 -85z"/>
<path d="M5220 789 c-69 -188 -126 -346 -128 -350 -2 -5 48 -9 111 -9 l115 0
12 50 12 51 126 -3 126 -3 14 -47 13 -48 115 0 c63 0 114 4 114 8 0 4 -56 161
-124 347 l-124 340 -129 3 -128 3 -125 -342z m289 20 c17 -59 31 -112 31 -118
0 -7 -27 -11 -76 -11 -66 0 -75 2 -70 16 4 9 21 66 38 126 17 60 35 105 39
101 4 -4 21 -56 38 -114z"/>
<path d="M5948 1124 c-5 -4 -8 -162 -8 -351 l0 -343 110 0 109 0 3 128 3 127
40 3 40 3 65 -131 64 -130 124 0 123 0 -77 147 c-46 87 -73 148 -66 151 33 11
78 52 99 91 41 78 24 191 -38 248 -56 52 -87 57 -344 61 -132 2 -243 0 -247
-4z m411 -180 c12 -15 21 -32 21 -39 0 -7 -9 -24 -21 -39 -19 -25 -25 -26
-110 -26 l-89 0 0 65 0 65 89 0 c85 0 91 -1 110 -26z"/>
<path d="M2470 710 l0 -80 130 0 130 0 0 80 0 80 -130 0 -130 0 0 -80z"/>
</g>
</svg>
